<svg width="90" height="90" fill="none" xmlns="http://www.w3.org/2000/svg"><g clip-path="url(#a)"><path d="m72.604 57.67 1.13-18.5c3.38-5.32 9.11-32.66-15.64-33.71v52.21h14.63-.12z" fill="#866241"/><path d="m72.604 39.51-.72 21.83c2.59.185 3.874-1.969 4.32-4.2.3-1.29 1.92-8.79 1.78-12.81.1-3.237-1.674-6.431-5.38-4.82zM17.396 39.51l.72 21.83c-2.59.185-3.874-1.969-4.32-4.2-.3-1.29-1.92-8.79-1.78-12.81-.1-3.237 1.674-6.431 5.38-4.82z" fill="#997050"/><path d="M39.504 66.18c1.55-16.784 0-62.66 0-62.66-31.54 2.29-25.93 27.17-25.3 29.87 2.9 12.433 4.774 32.79 4.774 32.79h20.526z" fill="#866241"/><path d="M66.184 16.73c-12.96 4.8-41.2 11.15-54.17 1.08 0 0 5.12-6 7.22-7.92 6.8-6.24 14.58-9.29 21.62-9.77 15.06-1.08 27.65 5.19 28.39 6.27 1.61 2.4 1.63 8.65-3.06 10.33v.01zM18.208 50.11s-.78 20.14-.27 21.68c1.4 4.23 10.18 11.4 18.86 16.51.96.56 15.9.46 16.86-.11 8.68-5.11 16.97-12.18 18.37-16.41.51-1.54-.08-20.98-.08-20.98l-53.73-.7-.01.01z" fill="#866241"/><path d="M45.264 3.41c-36.94 0-29.38 29.62-29.14 31.54.84 5.64 3.84 33.46 3.96 34.78.36 2.64 2.28 5.52 3.72 7.68 2.28 3.12 13.07 11.15 15.35 11.99 1.08.36 3.36.6 5.76.6 2.52 0 5.04 0 6.24-.48 2.28-.72 13.19-8.99 15.47-12.11 1.56-2.16 3.48-5.04 3.72-7.68.24-1.44 3.12-29.14 3.96-34.78.24-1.92 7.8-31.54-29.14-31.54h.12-.02z" fill="#563C24"/><path d="M62.264 15.05h.24c-4.3-2.63-8.24-2.04-17.4-2.04-9.1 0-13.04-.58-17.32 2.04h.24c-9.83 5.88-8.87 18.59-8.87 18.59.84 37.3 9.95 36.1 9.95 36.1-.7-13.36 12.46-9.2 16.08-9 3.71-.25 16.7-4.28 16.01 9 0 0 9.11 1.2 9.95-36.1 0 0 .96-12.71-8.87-18.59h-.01z" fill="#CDA98B"/><path d="M49.244 37.78c-.57 1.22-1.04 2.6-1.43 3.97l2.43 8.71 16.88.08.3-5.44s1.74-5.97.89-7.61c-1.68-3.35-15.11-1.24-19.07.29zM21.964 37.5c-.85 1.64-.08 4.84.89 7.61 1.04 2.97 1.13 5.35 1.13 5.35l16.87.2s0-.2 1.6-8.9c-.02-.05-.03-.11-.05-.16-.73-2.53-3.24-4.5-6.41-5.08-5.48-1-12.83-1.43-14.04.99l.01-.01z" fill="#BB916E"/><path d="M45.384 65.18c-7.8-.84-12.23-2.04-11.63 7.2 0 0 3 3 6.6 3.24h.36c.6-1.56 2.4-2.76 4.44-2.76 2.04 0 3.84 1.2 4.44 2.76h.36c3.84 0 6.96-3.24 6.96-3.24.48-9.23-3.84-8.04-11.63-7.2h.12-.02z" fill="#CDA98B"/><path d="M63.994 16.31c-12.4 4.41-38.99 7.71-49.96.88 0 0 5.72-4.74 7.63-6.5 6.44-5.73 13.11-7.49 19.79-7.93 14.43-.99 25.51 3.86 26.11 4.85 1.55 2.2.83 7.16-3.58 8.7h.01z" fill="#563C24"/><path d="m13.724 16.6-1.71 1.2c2.88 2.4 3.87 2.16 8.18 1.8-4.68-1.2-6.6-3-6.6-3h.13zM52.494 14.8s-30.34-2.64-18.47-11.39c-7 .656-12.23 6-16.91 10.68 7.44 4.56 35.38.72 35.38.72v-.01z" fill="#866241"/><path d="M22.354 40.11c3.36-3 18.95-1.08 18.95-1.08-.36-2.16-.6-3.84-2.04-5.52h-3.36c-4.32-.6-8.51-.96-9.95 0-1.32.84-3.36 2.28-3.96 3.84-.36.96 0 2.16.36 2.76z" fill="url(#b)"/><path d="M51.134 45.63c1.06-2.62 5.78-3.28 9.62-2.32 2.28.6 2.97 1.61 3.21 1.85-2.04 2.16-4.92 2.52-8.75 2.16-2.64-.24-4.08-1.68-4.08-1.68v-.01z" fill="#fff"/><path d="M60.734 45.75c-.12 1.8-1.68 3.12-3.6 3-1.8-.12-3.24-1.68-3.12-3.36.12-1.8 1.68-3.12 3.6-3 1.8.12 3.24 1.68 3.12 3.36z" fill="#362618"/><path d="M39.264 45.63c-2.28-3.12-6-3.24-9.83-2.28-1.39.46-2.76 1.56-3 1.8 2.04 2.16 4.92 2.52 8.75 2.16 3.84-.36 4.08-1.68 4.08-1.68z" fill="#fff"/><path d="M29.674 45.75c.12 1.8 1.68 3.12 3.6 3 1.92-.12 3.24-1.68 3.12-3.36-.12-1.8-1.68-3.12-3.6-3-1.8.12-3.24 1.68-3.12 3.36z" fill="#362618"/><path d="M37.254 43.51c-3.21-2.23-8.74-1.52-10.92 1.62 3.43-1.64 6.99-2.03 10.54-.98.5.11 1 .32 1.62.43a5.4 5.4 0 0 0-1.25-1.07h.01zM53.054 43.51c3.21-2.23 8.74-1.52 10.92 1.62-3.43-1.64-6.99-2.03-10.54-.98-.5.11-1 .32-1.62.43a5.4 5.4 0 0 1 1.25-1.07h-.01z" fill="#5A4027"/><path d="M57.954 51.94c-2.32 0-5-.13-7.94-.5a1.33 1.33 0 0 1-1.13-1.03c-.4-1.78-.18-6.14.08-7.64.08-.48.48-.85.97-.9 3.72-.35 7.97-.45 11.65-.25 1.58.08 2.94.21 3.95.38.51.08.92.17 1.22.27.34.11.7.27.83.62.42 1.02.6 4.91-.26 7.43-.19.54-.65.94-1.22 1.03-1.1.18-4.05.59-8.16.59h.01zm-7.81-8.88c-.24 1.48-.42 5.56-.08 7.08.01.05.06.09.11.1 7.98 1.01 14.07.19 15.75-.08a.35.35 0 0 0 .28-.23c.35-1.02.54-2.42.55-3.95 0-1.22-.12-2.15-.22-2.52-.16-.06-.59-.2-1.65-.34-1.04-.14-2.37-.25-3.86-.32-2.04-.09-6.16-.18-10.87.26h-.01zM32.324 51.94c-4.11 0-7.06-.41-8.16-.59-.57-.09-1.04-.49-1.22-1.03-.86-2.53-.68-6.41-.26-7.43.13-.35.49-.51.83-.62.3-.09.71-.18 1.22-.27 1.01-.16 2.38-.29 3.95-.38 3.68-.2 7.93-.1 11.65.25.49.05.89.42.97.9.26 1.5.48 5.86.08 7.64-.12.54-.58.96-1.13 1.03-2.93.37-5.62.5-7.94.5h.01zm-8.57-8.48c-.1.37-.22 1.3-.22 2.52 0 1.53.55 3.95.55 3.95s.15.21.28.23c1.68.27 7.77 1.09 15.75.08.06 0 .1-.05.11-.1.34-1.53.16-5.6-.08-7.08-4.71-.44-8.83-.36-10.87-.26-1.49.07-2.83.18-3.86.32-1.06.14-1.49.28-1.65.34h-.01z" fill="#6F6C6C"/><path d="M48.764 46.705s-.33-.38-.95-.74c-.81-.48-1.71-.73-2.68-.73-2.34 0-3.61 1.45-3.62 1.47l-.91-.78c.07-.08 1.65-1.89 4.53-1.89 2.88 0 4.47 1.81 4.53 1.89l-.91.78h.01z" fill="#6F6C6C"/><path d="M33.154 64.7s3.46 7.56 11.93 7.56c8.47 0 11.81-7.56 11.81-7.56s-5.25 2.52-11.93 2.52-11.93-2.52-11.93-2.52h.12z" fill="#A97363"/><path d="M33.154 64.7s3.46 4.32 11.93 4.32c8.47 0 11.81-4.32 11.81-4.32s-5.25 1.44-11.93 1.44-11.93-1.44-11.93-1.44h.12z" fill="#fff"/><path d="M33.154 64.7s3.46-.28 11.93-.28c8.47 0 11.81.28 11.81.28s-5.96 2.16-11.93 2.16-11.93-2.16-11.93-2.16h.12z" fill="#A97363"/><path d="M68.284 37.35c-.6-1.56-2.64-3-3.96-3.84-1.32-.84-13.31 0-13.31 0-1.32 1.8-1.68 3.48-2.04 5.64 0 0 15.59-1.92 18.95 1.08.36-.6.72-1.8.36-2.76v-.12z" fill="url(#c)"/><path d="M37.784 57.7h14.71v.88c0 .87-.71 1.58-1.58 1.58h-11.56c-.87 0-1.58-.71-1.58-1.58v-.88h.01z" fill="#A97363"/><path d="M38.964 57.43h12.35v.97c0 .38-.31.69-.69.69h-10.97c-.38 0-.69-.31-.69-.69v-.97z" fill="#CDA98B"/><path d="m45.144 62.47-5.95-2.62h11.89l-5.94 2.62z" fill="#A97363"/></g><defs><linearGradient id="b" x1="35.932" y1="3.588" x2="30.448" y2="47.618" gradientUnits="userSpaceOnUse"><stop stop-color="#75553B"/><stop offset=".8" stop-color="#49321B"/></linearGradient><linearGradient id="c" x1="58.704" y1="10.94" x2="58.704" y2="47" gradientUnits="userSpaceOnUse"><stop stop-color="#75553B"/><stop offset=".8" stop-color="#49321B"/></linearGradient><clipPath id="a"><path fill="#fff" d="M0 0h90v90H0z"/></clipPath></defs></svg>