<svg width="90" height="90" fill="none" xmlns="http://www.w3.org/2000/svg"><path d="M28.975 56.922c3.108.37 6.259.145 9.283-.665l.806-.216-.246.9a19.366 19.366 0 0 0 1.221 13.47 1.937 1.937 0 0 1-1.245 2.708l-2.701.724a4.258 4.258 0 0 1-5.323-3.547l-1.795-13.374z" fill="#009FD9"/><path d="M29.504 57.387a7.482 7.482 0 0 1 5.538-.437l1.34.416a19.134 19.134 0 0 0 .962 11.319l.371.913a2.23 2.23 0 0 1-1.489 2.994l-.818.22a2.978 2.978 0 0 1-3.707-2.383l-2.197-13.042z" fill="#008CD1"/><path d="M28.975 56.922c3.108.37 6.259.145 9.283-.665l.806-.216-.246.9a19.374 19.374 0 0 0-.626 3.626l-.757-.437a7.494 7.494 0 0 0-7.988.311l-.472-3.52z" fill="#0069AB"/><path d="M62.652 62.474 50.505 17.14a11.622 11.622 0 0 0-6.319 4.292l-3.835 5.158a27.855 27.855 0 0 1-15.144 10.286l-1.338.358a4.197 4.197 0 0 0-2.598 2.045c-3.572 6.551-1.375 14.752 4.994 18.64.98.598 2.164.769 3.273.471l1.338-.358a27.855 27.855 0 0 1 18.258 1.336l5.9 2.55a11.622 11.622 0 0 0 7.618.556z" fill="#DAD8D6"/><path d="M62.045 60.208 51.112 19.407a12.78 12.78 0 0 0-6.526 4.183l-3.637 4.382a30.554 30.554 0 0 1-15.604 10l-1.721.462a3.649 3.649 0 0 0-2.157 1.602c-3.697 5.965-1.595 13.812 4.59 17.13a3.65 3.65 0 0 0 2.669.308l1.72-.46a30.553 30.553 0 0 1 18.514.858l5.341 1.977a12.78 12.78 0 0 0 7.744.359z" fill="#BEBDB9"/><path d="M62.653 62.474c5.633-1.51 7.48-12.881 4.126-25.4-3.354-12.518-10.64-21.443-16.274-19.934-5.633 1.51-7.48 12.882-4.126 25.4 3.354 12.52 10.64 21.444 16.274 19.934z" fill="#E7E6E5"/><path d="M47.561 19.197c-2.407 4.75-2.587 13.567-.049 23.04 2.538 9.473 7.102 17.017 11.562 19.928-4.844-1.942-10.02-9.64-12.695-19.624-2.675-9.985-2.042-19.24 1.182-23.344z" fill="#F8F8F8"/><path d="M61.721 57.865c3.6-.964 4.342-9.865 1.658-19.88-2.683-10.015-7.777-17.352-11.376-16.387-3.599.964-4.341 9.865-1.658 19.88 2.684 10.015 7.777 17.352 11.376 16.387z" fill="#666564"/><path d="m58.244 44.22-3.71 7.74c-1.618-2.804-3.101-6.423-4.189-10.482a53.104 53.104 0 0 1-.306-1.204l5.776-5.12 2.43 9.066zm-6.241-22.622c.978-.262 2.065.09 3.185.94l-6.396 5.942c.26-3.78 1.356-6.385 3.211-6.882z" fill="#4B4847"/><path d="m55.815 35.153 2.43 9.067-5.881 3.158a44.81 44.81 0 0 1-2.019-5.9 44.81 44.81 0 0 1-1.202-6.12l6.672-.205z" fill="#BEBDB9"/><path d="M58.077 44.265c1.408-.377 2.573-2.865 1.902-5.369-.67-2.503-2.923-4.075-4.331-3.698-1.409.377-1.44 2.561-.769 5.065.67 2.504 1.79 4.38 3.198 4.002z" fill="#DAD8D6"/><path opacity=".2" d="m23.787 43.127 4.224-1.131a11.584 11.584 0 0 0 2.43 9.066l-4.224 1.132a11.583 11.583 0 0 1-2.43-9.067z" fill="#666564"/><path d="m23.787 43.127 1.391-.372a11.584 11.584 0 0 0 2.43 9.067l-1.391.372a11.583 11.583 0 0 1-2.43-9.067zM27.188 42.217l1.39-.373a11.583 11.583 0 0 0 2.43 9.067l-1.391.372a11.583 11.583 0 0 1-2.43-9.066z" fill="#666564"/><path d="M38.816 56.94c-.062.229-.12.459-.173.69l-8.44 8.44-.837-6.234 2.744-2.745a24.603 24.603 0 0 0 6.147-.836l.806-.216-.247.9z" fill="#0B548C"/><path d="M62.634 26.568a43.452 43.452 0 0 1 2.258 4.812L39.167 57.104c-2.64-.102-5.299.17-7.894.825l31.36-31.36z" fill="#666564"/><path d="M44.999 3c23.196 0 42 18.804 42 42s-18.804 42-42 42-42-18.804-42-42 18.804-42 42-42zM20.526 72.747A36.857 36.857 0 0 0 45 82c20.434 0 37-16.566 37-37 0-9.384-3.496-17.95-9.253-24.473l-52.22 52.22zM45 8c-20.435 0-37 16.566-37 37 0 9.251 3.395 17.71 9.008 24.196l52.188-52.188A36.856 36.856 0 0 0 45 8z" fill="#FA412D"/><path d="M45 87c22.4-1.816 40.184-19.6 42-42 0 23.196-18.804 42-42 42zM44.999 3c-22.4 1.816-40.184 19.6-42 42 0-23.196 18.804-42 42-42z" fill="#FF8A75"/></svg>