<svg width="90" height="90" fill="none" xmlns="http://www.w3.org/2000/svg"><path d="M45.01 5.39c-.66 0-1.24.4-1.48 1.02L33.31 32.92 4.94 34.44c-.65.04-1.22.48-1.42 1.09-.21.63 0 1.3.5 1.72l22.05 17.93-7.32 27.46c-.17.63.07 1.3.6 1.69.52.37 1.26.39 1.78.05L45 68.93l23.85 15.44c.54.35 1.26.33 1.79-.05.52-.38.76-1.05.59-1.68l-7.31-27.46 22.04-17.92c.51-.42.71-1.09.5-1.72-.2-.63-.76-1.06-1.42-1.1l-28.37-1.52L46.46 6.41c-.23-.61-.83-1.01-1.48-1.01l.03-.01z" fill="#F7C631"/><path d="M50.17 19.19 45.04 5.87 34.18 34.03 4.05 35.65l23.43 19.03-7.78 29.16.62-.41c36.32-33.58 29.85-64.24 29.85-64.24z" fill="#FCE26A"/><path d="M45.01 6.75c.09 0 .17.06.21.14l9.77 25.37.76 1.96 2.1.11L85 35.79c.09 0 .17.06.2.16.03.09 0 .18-.07.24l-21.1 17.15-1.63 1.33.54 2.03 7 26.29a.21.21 0 0 1-.08.22c-.05.04-.1.04-.14.04-.04 0-.08-.01-.11-.03L46.79 68.44l-1.77-1.14-1.77 1.14L20.4 83.23s-.08.03-.11.03c-.05 0-.09-.02-.13-.04-.07-.05-.11-.15-.08-.23l7.01-26.28.54-2.03L26 53.35 4.88 36.18c-.07-.06-.1-.15-.07-.24s.11-.15.2-.15l27.15-1.46 2.1-.11.76-1.96L44.8 6.89c.03-.09.11-.15.21-.15m0-3.25c-1.44 0-2.72.88-3.24 2.22l-9.78 25.37-27.15 1.46a3.472 3.472 0 0 0-2 6.16l21.11 17.15-7.01 26.28a3.47 3.47 0 0 0 1.31 3.7c.61.44 1.32.66 2.04.66.66 0 1.31-.18 1.88-.56l22.84-14.78 22.82 14.78c.57.37 1.23.56 1.88.56a3.463 3.463 0 0 0 3.35-4.36l-6.99-26.28 21.1-17.15c1.11-.9 1.55-2.4 1.11-3.77a3.458 3.458 0 0 0-3.11-2.39l-27.15-1.46-9.77-25.37a3.478 3.478 0 0 0-3.24-2.22z" fill="#E3AA24"/></svg>