<svg width="90" height="90" fill="none" xmlns="http://www.w3.org/2000/svg"><path d="m20.892 59.452 19.382 22.373a4.667 4.667 0 0 0 7.054 0L66.71 59.452c16.037-18.51 19.091-25.185 19.091-32.236 0-12.593-8.782-20.652-19.472-20.652-7.764 0-15.273 4.155-22.528 16.748-7.127-12.34-14.763-16.748-22.145-16.748-9.927 0-19.855 7.933-19.855 21.03 0 6.296 2.418 12.718 19.091 31.858z" fill="#81B64C"/><path fill-rule="evenodd" clip-rule="evenodd" d="M39.342 80.621 9.525 38.232a18.094 18.094 0 0 1 1.216-22.364c6.675-7.584 18.268-8.232 25.747-1.44l3.737 3.394c-6.07-8.189-12.409-11.258-18.57-11.258-9.927 0-19.854 7.933-19.854 21.03 0 6.296 2.418 12.718 19.091 31.858L38.74 80.054l.603.567z" fill="#B2E068"/><path fill-rule="evenodd" clip-rule="evenodd" d="M44.419 81.204c3.294-3.614 18.725-20.55 20.892-22.987C80.37 41.288 83.237 35.184 83.237 28.735c0-11.516-8.246-18.887-18.284-18.887-4.634 0-9.171 1.536-13.612 5.613C35.83 33.15 32.217 59.481 44.42 81.204z" fill="#5D9948"/><path d="M30.464 8.838c-2.944-1.588-5.896-2.274-8.808-2.274-9.927 0-19.855 7.933-19.855 21.03 0 .681.029 1.364.1 2.065.992-11.978 11.082-21.392 23.382-21.392 1.78 0 3.514.197 5.181.57z" fill="#B2E068"/></svg>