<svg width="90" height="90" fill="none" xmlns="http://www.w3.org/2000/svg"><path d="M45 90c23.196 0 42-18.804 42-42S68.196 6 45 6 3 24.804 3 48s18.804 42 42 42z" fill="#305730"/><path d="M45 87c23.195 0 42-18.805 42-42C87 21.804 68.194 3 45 3 21.804 3 3 21.804 3 45c0 23.195 18.804 42 42 42z" fill="#81B64C"/><path opacity=".2" d="M25.634 82.278A41.818 41.818 0 0 0 45 86.999c23.196 0 42-18.804 42-42 0-6.305-1.39-12.285-3.879-17.652-8.682 26.664-30.284 47.427-57.487 54.93z" fill="#B2E068"/><path d="M42.551 3.07C24.364 6.791 9.789 19.805 3.787 36.867 7.422 18.34 23.237 4.18 42.55 3.07zM45 87c22.24-2.743 39.804-20.571 41.99-42.865.006.287.01.576.01.864 0 23.196-18.805 42-42 42z" fill="#B2E068"/><path d="M30.578 71.324c-1.771 1.18-3.88-.337-3.29-2.361l4.386-16.615-13.325-10.795c-1.771-1.434-.338-3.795 1.265-3.964l17.205-.928 6.156-16.024a2.298 2.298 0 0 1 2.109-1.434c.843 0 1.686.506 2.024 1.434l6.156 16.024 17.12.928c2.194.084 2.7 2.783 1.266 3.88L58.325 52.347l4.385 16.615c.59 2.108-1.855 3.289-3.289 2.36l-14.422-9.276-14.421 9.277z" fill="#45753C"/><path d="M30.578 68.699c-1.771 1.18-3.88-.338-3.29-2.362l4.386-16.614-13.325-10.795c-1.771-1.434-.338-3.795 1.265-3.964l17.205-.928 6.156-16.024a2.298 2.298 0 0 1 2.109-1.434c.843 0 1.686.506 2.024 1.434l6.156 16.024 17.12.928c2.194.084 2.7 2.783 1.266 3.88L58.325 49.722l4.385 16.614c.59 2.109-1.855 3.29-3.289 2.362l-14.422-9.277-14.421 9.277z" fill="#fff"/></svg>