<svg width="90" height="90" fill="none" xmlns="http://www.w3.org/2000/svg"><path d="M45 90c23.196 0 42-18.804 42-42S68.196 6 45 6 3 24.804 3 48s18.804 42 42 42z" fill="#10777C"/><path d="M45 87c23.195 0 42-18.805 42-42C87 21.804 68.194 3 45 3 21.804 3 3 21.804 3 45c0 23.195 18.804 42 42 42z" fill="#26C2A3"/><path opacity=".2" d="M25.634 82.278A41.82 41.82 0 0 0 45 86.999c23.196 0 42-18.804 42-42 0-6.305-1.39-12.285-3.879-17.652-8.682 26.663-30.284 47.427-57.487 54.93z" fill="#62F6CA"/><path d="M42.551 3.07C24.364 6.791 9.789 19.805 3.787 36.867 7.422 18.34 23.237 4.18 42.55 3.07zM45 87c22.24-2.743 39.804-20.571 41.99-42.865.006.287.01.576.01.864 0 23.196-18.805 42-42 42z" fill="#62F6CA"/><path d="M38.928 73.01h-9.193c-.844 0-1.518-.759-1.518-1.602v-8.855c0-.675.337-1.518 1.518-1.518h9.193c.759 0 1.686.253 1.686 1.518v8.855c0 .675-.927 1.602-1.686 1.602zm21.421 0h-9.192c-.76 0-1.687-.927-1.687-1.602v-8.855c0-1.265.928-1.518 1.687-1.518h9.192c1.181 0 1.518.843 1.518 1.518v8.855c0 .843-.674 1.602-1.518 1.602zM38.506 54.54h-8.35c-.927 0-1.602-.505-1.602-1.517l-.675-31.627c0-.759.338-1.518 1.518-1.518h9.868c.928 0 1.602.59 1.602 1.518l-.927 31.627c0 .759-.675 1.518-1.434 1.518zm21.337 0h-8.35c-.758 0-1.433-.758-1.433-1.517l-.928-31.627c0-.928.675-1.518 1.603-1.518h9.867c1.181 0 1.518.759 1.518 1.518l-.674 31.627c0 1.012-.675 1.518-1.603 1.518z" fill="#10777C"/><path d="M38.928 70.385h-9.193c-.844 0-1.518-.759-1.518-1.602v-8.855c0-.675.337-1.518 1.518-1.518h9.193c.759 0 1.686.253 1.686 1.518v8.855c0 .675-.927 1.602-1.686 1.602zm21.421 0h-9.192c-.76 0-1.687-.927-1.687-1.602v-8.855c0-1.265.928-1.518 1.687-1.518h9.192c1.181 0 1.518.843 1.518 1.518v8.855c0 .843-.674 1.602-1.518 1.602zm-21.843-18.47h-8.35c-.927 0-1.602-.505-1.602-1.517L27.88 18.77c0-.759.338-1.518 1.518-1.518h9.868c.928 0 1.602.59 1.602 1.518l-.927 31.627c0 .759-.675 1.518-1.434 1.518zm21.337 0h-8.35c-.758 0-1.433-.758-1.433-1.517l-.928-31.627c0-.928.675-1.518 1.603-1.518h9.867c1.181 0 1.518.759 1.518 1.518l-.674 31.627c0 1.012-.675 1.518-1.603 1.518z" fill="#fff"/></svg>