<svg width="90" height="90" fill="none" xmlns="http://www.w3.org/2000/svg"><path d="m18.56 57.69-5.5-8.46L24.46 5.5s1.78-4.65 3.33.24l7.71 23.55h18.96l5.49-20.61s1.63-11.11 4.68-.34l12.44 42.39-5.67 6.96H18.56z" fill="#486688"/><path d="M44.69 83.49c-24.36 0-30.56-14.58-31.31-16.67L6.73 16.79 19.5 41.15c.14.31.32.59.55.84l5.68 6.24c.53.58 1.24.9 1.98.9.18 0 .36-.02.55-.06.92-.2 1.68-.88 2.03-1.82l14.47-33.57 14.46 33.57c.35.94 1.11 1.62 2.03 1.82.18.04.36.06.55.06.74 0 1.45-.32 1.98-.9l5.68-6.24c.22-.24.41-.53.54-.84l13.41-25.83-7.28 51.52c-.62 1.86-6.38 16.53-31.15 16.64h-.28l-.01.01z" fill="#80A6C5"/><path d="M5.64 11.96c-.18.52-.31 1.18-.23 1.66l7.13 53.69c.16.41 5.81 17.31 32.15 17.31v1.89l.29-1.89c26.72-.13 31.99-17.41 32.04-17.58l7.55-53.59c.09-.52 0-.95-.21-1.2-.38-.15-.87.09-1.32 1.2l-14.18 27.7-7.66 8.4-16.28-38.08c-.06-.15-.12-.29-.17-.42-.04.1-.08.19-.11.28L28.29 49.54l-7.94-8.81L5.85 12.4c-.08-.17-.15-.31-.21-.44z" fill="#AED0F0"/><path d="m67.47 39.87-5.68 6.23-15.15-35.4s-.13-.36-.35-.8c-.01-.02-.03-.04-.04-.07-.06-.11-.12-.22-.19-.34-.46-.77-.91-1.06-1.31-1.04-.41-.02-.85.27-1.31 1.04-.07.11-.14.22-.19.34-.02.02-.03.04-.04.07-.22.43-.35.8-.35.8L27.71 46.1l-5.68-6.23-15.3-23.08C9.36 31.3 19.12 75.11 28.4 81.62c3.1.65 11.83 1.37 16.11 1.4h.48c4.28-.04 13-.76 16.11-1.41 9.28-6.51 19.04-50.31 21.66-64.83L67.47 39.86v.01z" fill="#D0E6FB"/><path d="M60.9 46.2 46.6 11.88c-1.94-5.12-3.7-.03-3.7-.03L28.6 46.19c0 .36-.02.71-.02 1.07 0 16.83 2.97 28.76 7.46 37.22 2.69.47 5.65.75 8.94.73 3.12-.01 5.92-.3 8.49-.74 4.48-8.47 7.45-20.4 7.45-37.21 0-.35-.02-.7-.02-1.06z" fill="#fff"/><path d="m44.75 14.54 14.06 32.85 1.99 4.64 3.4-3.73 5.68-6.23.29-.32.2-.39 12.3-24.13-7.01 49.61c-.66 1.92-6.41 16.31-30.68 16.43h-.29c-23.98 0-30.1-14.43-30.84-16.44L7.43 18.47l11.7 22.88.2.39.29.32 5.68 6.23 3.4 3.74 1.99-4.65 14.05-32.85m.03-6.09c-1.12 0-1.92 2.26-1.92 2.26L27.7 46.1l-5.68-6.23L7.53 11.54c-.68-1.5-1.35-2.06-1.96-2.06-1.34 0-2.3 2.79-2.03 4.45l7.11 53.63s5.84 18.95 34.02 18.95h.3c28.44-.14 33.85-18.95 33.85-18.95l7.61-53.84c.34-1.99-.89-3.51-2.32-3.51-.99 0-2.09.73-2.82 2.52L67.46 39.87l-5.68 6.23-15.14-35.38c-.67-1.71-1.31-2.29-1.88-2.29l.01.01z" fill="#749BBF"/><path d="M14.36 57.62s5.25 9.73 30.64 9.66c25.39-.07 30.21-9.66 30.21-9.66" stroke="#AED0F0" stroke-width="3.32" stroke-miterlimit="10" stroke-linecap="round"/></svg>